<?xml version="1.0" encoding="UTF-8" standalone="no"?>
<!-- Created with Inkscape (http://www.inkscape.org/) -->

<svg
   xmlns:dc="http://purl.org/dc/elements/1.1/"
   xmlns:cc="http://creativecommons.org/ns#"
   xmlns:rdf="http://www.w3.org/1999/02/22-rdf-syntax-ns#"
   xmlns:svg="http://www.w3.org/2000/svg"
   xmlns="http://www.w3.org/2000/svg"
   xmlns:sodipodi="http://sodipodi.sourceforge.net/DTD/sodipodi-0.dtd"
   xmlns:inkscape="http://www.inkscape.org/namespaces/inkscape"
   width="120mm"
   height="120mm"
   viewBox="0 0 120 120"
   version="1.1"
   id="svg907"
   inkscape:version="0.92.3 (2405546, 2018-03-11)"
   sodipodi:docname="athensmap.svg">
  <defs
     id="defs901" />
  <sodipodi:namedview
     id="base"
     pagecolor="#ffffff"
     bordercolor="#666666"
     borderopacity="1.0"
     inkscape:pageopacity="0.0"
     inkscape:pageshadow="2"
     inkscape:zoom="1.4"
     inkscape:cx="313.62791"
     inkscape:cy="204.00997"
     inkscape:document-units="mm"
     inkscape:current-layer="layer1"
     showgrid="false"
     inkscape:window-width="1916"
     inkscape:window-height="2101"
     inkscape:window-x="1920"
     inkscape:window-y="30"
     inkscape:window-maximized="0" />
  <metadata
     id="metadata904">
    <rdf:RDF>
      <cc:Work
         rdf:about="">
        <dc:format>image/svg+xml</dc:format>
        <dc:type
           rdf:resource="http://purl.org/dc/dcmitype/StillImage" />
        <dc:title></dc:title>
      </cc:Work>
    </rdf:RDF>
  </metadata>
  <g
     inkscape:label="Layer 1"
     inkscape:groupmode="layer"
     id="layer1"
     transform="translate(0,-177)"
     style="display:inline">
    <path
       style="display:inline;fill:#cbe896;fill-opacity:1;fill-rule:evenodd;stroke:#f4b886;stroke-width:0.26499999;stroke-linecap:butt;stroke-linejoin:miter;stroke-miterlimit:4;stroke-dasharray:none;stroke-opacity:1"
       d="m 9.3038527,252.37415 c 0.06682,-0.16704 3.5914363,-4.87766 3.5914363,-4.87766 0,0 2.739514,-3.842 2.756217,-4.04246 0.0167,-0.20045 4.04245,-9.52147 4.04245,-9.52147 0,0 -1.887588,-0.23386 -2.071338,-0.3842 -0.183748,-0.15034 -2.472243,-1.87089 -2.472243,-1.87089 0,0 7.767521,-7.06594 11.158503,-8.25194 3.390982,-1.18601 5.495729,-4.56029 5.495729,-4.56029 0,0 1.720551,-0.61806 2.472243,-1.18601 0.751697,-0.56795 5.462323,-5.31198 5.729595,-6.28083 0.129881,-0.47083 -0.278837,-3.75112 1.366184,-5.92871 0.704553,-0.93264 4.085145,-4.51218 4.914646,-6.09842 0.493572,-0.41549 1.109855,0.33481 1.460148,0.0364 1.748091,-1.48929 1.429705,-2.74249 1.429705,-2.74249 0,0 2.33861,-1.98781 2.204974,-2.57247 -0.133633,-0.58465 -0.835218,-0.93544 0.567946,-1.88759 1.403165,-0.95214 1.987822,0.15034 2.539062,-0.45101 0.55124,-0.60136 0.50113,-1.18601 1.68714,-1.38647 1.18601,-0.20045 2.48895,0.38421 2.97337,-1.26952 0.48443,-1.65373 3.240645,-5.12824 3.240645,-5.12824 0,0 1.40316,-1.05237 2.37202,0.41761 0.96885,1.46998 2.55576,0.65147 2.55576,0.65147 l 7.66729,4.52688 -7.23298,13.14632 c 0,0 -0.4176,3.37427 -0.45101,3.8587 -0.0334,0.48443 -1.10249,1.5201 -1.1192,1.58691 -0.0167,0.0668 0.13364,0.73499 0.13364,0.73499 l 0.75169,0.11693 c 0,0 0.18375,0.65147 0.0167,0.93545 -0.16704,0.28397 -0.18375,1.1693 -0.51783,1.41987 -0.33409,0.25056 -0.51784,0.0501 -0.68488,0.25056 -0.16705,0.20046 -0.21716,3.12372 -0.21716,3.12372 l 3.24064,0.20045 c 0,0 0.60136,-0.86863 1.31965,-0.66818 0.71828,0.20046 1.1359,-0.61806 1.43657,-0.83521 0.30069,-0.21716 0.10024,-0.56795 0.7183,-0.0835 0.61806,0.48443 1.00226,0.38421 1.26952,0.15034 0.26728,-0.23386 -0.0501,-0.56794 0.31739,-0.0668 0.3675,0.50113 2.05463,2.42213 2.07134,3.19053 0.0167,0.7684 1.63702,0.25056 1.63702,0.25056 0,0 0.3675,0.3675 0.55125,0.83522 0.18374,0.46772 2.13815,1.35305 2.42213,1.5368 0.28396,0.18375 2.82303,-0.50113 2.82303,-0.50113 l 7.93457,8.36888 c 0,0 4.76073,-3.49121 6.1806,-2.70611 1.41987,0.78511 3.123715,2.88985 3.123715,2.88985 l 3.75847,-6.36435 4.89438,2.90655 -3.27406,2.92326 c 0,0 8.36888,8.0682 5.04472,10.08943 -3.32417,2.02122 -2.82304,-0.11693 -2.77292,0.66817 0.0501,0.78511 0.0167,5.52914 0.0167,5.52914 l -5.3955,4.07586 c 0,0 -1.01897,-0.35079 -1.33635,-0.43431 -0.31739,-0.0835 -4.710625,-5.02801 -4.710625,-5.02801 l -4.27631,3.17383 c 0,0 -9.33773,5.3955 -9.40454,5.4122 -0.0668,0.0167 -2.10475,-0.0167 -2.25509,0.0167 -0.15034,0.0334 -2.00452,1.11919 -2.00452,1.11919 0,0 1.82077,2.3052 1.80407,2.37202 -0.0167,0.0668 -0.86863,1.40316 -0.7517,1.62032 0.11693,0.21716 4.00904,3.0736 4.00904,3.0736 l 0.78511,-0.43431 4.6271,3.30745 c 0,0 0.26727,1.33635 0.11693,1.78736 -0.15034,0.45102 -0.80181,2.48895 -0.88533,2.60588 -0.0835,0.11693 -4.76074,-3.8587 -4.76074,-3.8587 0,0 -1.5702,-1.00226 -2.03793,-0.93545 -0.46772,0.0668 -5.0113,-0.61806 -5.0113,-0.61806 l -0.86863,-0.93543 -1.01896,0.7851 c 0,0 -1.25283,-1.33635 -1.46998,-1.26953 -0.21716,0.0668 -1.48669,0.73499 -0.96886,1.68713 0.51784,0.95215 4.96119,7.48355 4.96119,7.48355 0,0 -1.98781,2.33861 -2.10474,2.33861 -0.11693,0 -2.12146,-0.50113 -2.12146,-0.50113 0,0 -0.20045,0.35079 -0.70158,0.61806 -0.50114,0.26727 -5.76301,4.15938 -5.76301,4.15938 0,0 4.49347,4.19278 2.77293,4.89436 -1.72055,0.70159 -1.73726,-0.68488 -1.87089,0.3842 -0.13364,1.06908 -1.186,0.85192 -1.77066,0.46772 -0.58465,-0.3842 -3.32417,0.81852 -3.32417,0.81852 l -0.55123,-0.7684 -2.706105,0.23386 -3.00678,1.1526 -0.70159,-0.61806 -2.338603,0.60135 -3.407688,3.34087 c 0,0 -0.902034,-0.16704 -0.968851,-0.15034 -0.06682,0.0167 -2.839739,5.12824 -3.608139,4.76074 -0.768401,-0.36749 -8.235244,-8.03479 -8.235244,-8.03479 l 5.378799,-5.42891 -2.221677,-2.30519 c 0,0 -2.321904,-3.85871 -3.090304,-3.14042 -0.7684,0.71829 -6.832076,0.50113 -6.832076,0.50113 0,0 -8.435695,-6.59821 -8.285356,-6.66503 0.150339,-0.0668 5.345391,-4.30972 5.345391,-4.30972 0,0 -0.267269,-1.72054 -0.634765,-1.87088 -0.367496,-0.15034 -0.250566,-2.08804 -0.250566,-2.08804 0,0 -6.965712,-0.51784 -7.333207,-0.40091 -0.367496,0.11693 -5.712886,-3.107 -5.712886,-3.107 z"
       id="path862"
       inkscape:connector-curvature="0"
       sodipodi:nodetypes="ccccscccccscscccccsccccccccccccccccccccccccccccccccccccccsccscccccccccccccscscccsccccccccccccscccscscc" />
    <g
       aria-label="Athens"
       transform="matrix(0.26458333,0,0,0.26458333,-44.173129,165.90759)"
       style="font-style:normal;font-variant:normal;font-weight:normal;font-stretch:normal;font-size:40px;line-height:125%;font-family:'Open Sans';-inkscape-font-specification:'Open Sans';letter-spacing:0px;word-spacing:0px;display:inline;fill:#000000;fill-opacity:1;stroke:none;stroke-width:1px;stroke-linecap:butt;stroke-linejoin:miter;stroke-opacity:1"
       id="flowRoot869-7">
      <path
         d="m 330.35352,296.12556 -3.55469,-9.08204 h -11.44531 l -3.51563,9.08204 h -3.35937 l 11.28906,-28.67188 h 2.79297 l 11.23047,28.67188 z m -4.58985,-12.07032 -3.32031,-8.84765 q -0.64453,-1.67969 -1.32813,-4.1211 -0.42968,1.875 -1.23046,4.1211 l -3.35938,8.84765 z"
         style=""
         id="path1662" />
      <path
         d="m 344.14258,293.8404 q 0.85937,0 1.66015,-0.11719 0.80079,-0.13672 1.26954,-0.27344 v 2.48047 q -0.52735,0.25391 -1.5625,0.41016 -1.01563,0.17578 -1.83594,0.17578 -6.21094,0 -6.21094,-6.54297 v -12.73437 h -3.06641 v -1.5625 l 3.06641,-1.34766 1.36719,-4.57031 h 1.875 v 4.96094 h 6.21094 v 2.51953 h -6.21094 v 12.59765 q 0,1.9336 0.91797,2.96875 0.91797,1.03516 2.51953,1.03516 z"
         style=""
         id="path1664" />
      <path
         d="M 366.01758,296.12556 V 282.2779 q 0,-2.61719 -1.19141,-3.90625 -1.1914,-1.28906 -3.73047,-1.28906 -3.3789,0 -4.9414,1.83593 -1.54297,1.83594 -1.54297,6.01563 v 11.19141 h -3.24219 v -30.39063 h 3.24219 v 9.19922 q 0,1.66016 -0.15625,2.75391 h 0.19531 q 0.95703,-1.54297 2.71484,-2.42188 1.77735,-0.89844 4.04297,-0.89844 3.92578,0 5.87891,1.875 1.97266,1.85547 1.97266,5.91797 v 13.96485 z"
         style=""
         id="path1666" />
      <path
         d="m 384.94336,296.51618 q -4.74609,0 -7.5,-2.89062 -2.73438,-2.89063 -2.73438,-8.02735 0,-5.17578 2.53907,-8.22265 2.55859,-3.04688 6.85547,-3.04688 4.02343,0 6.36718,2.65625 2.34375,2.63672 2.34375,6.97266 v 2.05078 h -14.74609 q 0.0977,3.76953 1.89453,5.72265 1.81641,1.95313 5.09766,1.95313 3.45703,0 6.83593,-1.44531 v 2.89062 q -1.71875,0.74219 -3.26171,1.05469 -1.52344,0.33203 -3.69141,0.33203 z m -0.87891,-19.47266 q -2.57812,0 -4.12109,1.67969 -1.52344,1.67969 -1.79688,4.64844 h 11.19141 q 0,-3.06641 -1.36719,-4.6875 -1.36718,-1.64063 -3.90625,-1.64063 z"
         style=""
         id="path1668" />
      <path
         d="M 412.9707,296.12556 V 282.2779 q 0,-2.61719 -1.1914,-3.90625 -1.19141,-1.28906 -3.73047,-1.28906 -3.35938,0 -4.92188,1.8164 -1.5625,1.81641 -1.5625,5.9961 v 11.23047 h -3.24218 v -21.40625 h 2.63671 l 0.52735,2.92968 h 0.15625 q 0.99609,-1.58203 2.79297,-2.4414 1.79687,-0.87891 4.0039,-0.87891 3.86719,0 5.82032,1.875 1.95312,1.85547 1.95312,5.95703 v 13.96485 z"
         style=""
         id="path1670" />
      <path
         d="m 436.66211,290.28571 q 0,2.98828 -2.22656,4.60938 -2.22657,1.62109 -6.25,1.62109 -4.25782,0 -6.64063,-1.34766 v -3.00781 q 1.54297,0.78125 3.30078,1.23047 1.77735,0.44922 3.41797,0.44922 2.53906,0 3.90625,-0.80078 1.36719,-0.82031 1.36719,-2.48047 0,-1.25 -1.09375,-2.12891 -1.07422,-0.89843 -4.21875,-2.10937 -2.98828,-1.11328 -4.25781,-1.9336 -1.25,-0.83984 -1.875,-1.89453 -0.60547,-1.05468 -0.60547,-2.51953 0,-2.61719 2.1289,-4.12109 2.12891,-1.52344 5.83985,-1.52344 3.45703,0 6.75781,1.40625 l -1.15234,2.63672 q -3.22266,-1.32813 -5.83985,-1.32813 -2.30468,0 -3.47656,0.72266 -1.17187,0.72266 -1.17187,1.99219 0,0.85937 0.42968,1.46484 0.44922,0.60547 1.42578,1.15235 0.97657,0.54687 3.75,1.58203 3.8086,1.38672 5.13672,2.79297 1.34766,1.40625 1.34766,3.53515 z"
         style=""
         id="path1672" />
    </g>
  </g>
</svg>
