<?xml version="1.0" encoding="UTF-8" standalone="no"?>
<!-- Created with Inkscape (http://www.inkscape.org/) -->

<svg
   xmlns:dc="http://purl.org/dc/elements/1.1/"
   xmlns:cc="http://creativecommons.org/ns#"
   xmlns:rdf="http://www.w3.org/1999/02/22-rdf-syntax-ns#"
   xmlns:svg="http://www.w3.org/2000/svg"
   xmlns="http://www.w3.org/2000/svg"
   xmlns:sodipodi="http://sodipodi.sourceforge.net/DTD/sodipodi-0.dtd"
   xmlns:inkscape="http://www.inkscape.org/namespaces/inkscape"
   width="120mm"
   height="120mm"
   viewBox="0 0 120 120"
   version="1.1"
   id="svg8"
   sodipodi:docname="brusselsmap.svg"
   inkscape:version="0.92.3 (2405546, 2018-03-11)">
  <defs
     id="defs2" />
  <sodipodi:namedview
     id="base"
     pagecolor="#ffffff"
     bordercolor="#666666"
     borderopacity="1.0"
     inkscape:pageopacity="0.0"
     inkscape:pageshadow="2"
     inkscape:zoom="1"
     inkscape:cx="93.324956"
     inkscape:cy="194.40213"
     inkscape:document-units="mm"
     inkscape:current-layer="layer1"
     showgrid="false"
     inkscape:window-width="1916"
     inkscape:window-height="2101"
     inkscape:window-x="0"
     inkscape:window-y="30"
     inkscape:window-maximized="0"
     inkscape:measure-start="162.229,1050.71"
     inkscape:measure-end="601.844,1051.55" />
  <metadata
     id="metadata5">
    <rdf:RDF>
      <cc:Work
         rdf:about="">
        <dc:format>image/svg+xml</dc:format>
        <dc:type
           rdf:resource="http://purl.org/dc/dcmitype/StillImage" />
        <dc:title></dc:title>
      </cc:Work>
    </rdf:RDF>
  </metadata>
  <g
     inkscape:label="Layer 1"
     inkscape:groupmode="layer"
     id="layer1"
     style="display:inline"
     transform="translate(0,-177)">
    <path
       style="fill:#cbe896;fill-opacity:1;fill-rule:evenodd;stroke:#f4b886;stroke-width:0.26499999;stroke-linecap:butt;stroke-linejoin:miter;stroke-miterlimit:4;stroke-dasharray:none;stroke-opacity:1"
       d="m 70.435436,297.09008 c 0.46772,-0.20045 25.457421,-11.89349 25.457421,-11.89349 l 0.80181,1.40316 12.160763,-7.41673 11.09168,-5.61266 -3.80859,-3.20723 -13.16301,-8.48581 2.27178,-0.86862 -2.3386,-1.46999 1.67042,-2.3386 3.14042,-1.87089 -0.93544,-1.33635 10.49033,-2.07134 -5.34539,-11.5594 1.20271,-1.60362 -0.33409,-1.40317 -0.53454,-0.66817 0.46772,-4.20949 -0.86862,0.20045 c 0,0 -1.46998,-2.6727 -1.40316,-2.93997 0.0668,-0.26727 -0.40091,-0.93544 -0.86863,-1.06908 -0.46772,-0.13363 0.66817,-3.20723 -3.87541,-3.27405 -4.54357,-0.0668 -3.67495,-1.33634 -3.67495,-1.33634 l 0.0668,-1.1359 -0.86863,-1.20271 -2.539063,-1.67044 -0.66817,1.40317 -0.42455,0.35085 -3.531721,-2.01981 0.425221,-0.97447 -0.726421,-0.77958 -0.33664,-0.14765 -0.58468,0.31892 -3.80338,-3.77386 c 0,0 3.02381,-2.83482 2.95294,-3.09467 -0.0709,-0.25986 0.16536,-1.79539 0.16536,-1.79539 0,0 1.15755,-1.72452 1.13393,-1.81901 -0.0236,-0.0945 -0.61421,-0.87407 -0.61421,-0.87407 l 4.748331,-0.96856 -2.45685,-5.19718 -2.291481,-3.44903 c 0,0 -0.70871,-1.86626 2.622211,-3.75614 3.33091,-1.88988 -3.354541,-3.40179 -3.354541,-3.40179 l 0.85045,-0.87406 -1.96076,-2.57497 -2.88206,-1.1103 -0.18899,-1.2048 -2.85845,-0.94494 c 0,0 0.30711,-1.34654 0.4016,-1.46466 0.0945,-0.11812 0.96857,-1.6064 0.87407,-1.74814 -0.0945,-0.14174 -4.70108,-2.33873 -4.70108,-2.33873 l -0.82682,0.77958 -2.05525,-0.21261 -0.0472,1.03943 -2.07887,1.22842 -3.54353,0.23624 c 0,0 -1.911434,5.01926 -2.19698,6.35472 -0.01378,0.38568 -2.22061,1.11031 -2.50409,2.74033 -0.28349,1.63002 -4.29948,-0.49609 -4.29948,-0.49609 0,0 -2.220614,-1.44104 -3.094683,-1.53553 -0.87407,-0.0945 -7.843007,0.0236 -8.551712,-0.59059 -0.708705,-0.61421 -9.260416,-0.0709 -12.355097,4.016 -3.09468,4.08687 -7.488652,4.79557 -7.488652,4.79557 0,0 -6.449219,0.23624 -6.354726,2.07887 0.09449,1.84263 2.858445,5.10268 2.385976,6.7327 -0.472472,1.63002 -3.378163,3.66164 -3.378163,3.66164 0,0 -2.504094,2.78758 -2.69308,2.4096 -0.188989,-0.37797 -1.110306,1.74814 -1.110306,1.74814 0,0 -1.937128,2.4096 -2.149739,2.48047 -0.212611,0.0709 0.188989,5.48066 0.188989,5.48066 l 1.535528,0.54334 0.874069,1.03943 1.346539,0.35435 c 0,0 1.842635,1.27567 -1.063056,2.29149 -2.905694,1.01581 -0.283483,2.05524 -0.283483,2.05524 0,0 1.984375,3.87426 0.543341,3.23642 -1.441035,-0.63783 -1.204799,1.01581 -1.204799,1.01581 l -0.708705,6.66183 -2.740329,0.30711 c 0,0 -0.637834,-1.79539 -1.393785,-0.85045 -0.755955,0.94494 -0.826823,1.93713 -2.456847,1.98438 -1.630021,0.0472 -3.732514,0.99218 -4.5829623,0.37797 -0.850445,-0.61421 -3.023809,2.12612 -3.023809,2.12612 0,0 -0.04725,-0.0472 0.307107,0.85045 0.354351,0.89769 -0.377975,5.17355 -1.063058,5.64601 -0.685083,0.47248 -4.1341153,4.34673 -4.2286083,4.39398 -0.0945,0.0472 -0.259861,0.51972 0.354351,1.03943 0.614212,0.51972 0.897694,0.11812 1.039434,-0.51971 0.141743,-0.63784 2.2442363,0.44884 2.4332223,1.25204 0.188989,0.8032 2.14974,-0.14174 2.14974,-0.14174 0,0 1.960753,3.89788 1.842635,5.1263 -0.118118,1.22842 5.3152883,-1.74814 7.0398053,-0.4016 1.724517,1.34654 1.842635,3.54353 5.220796,2.97656 3.378163,-0.56696 3.63802,-1.2048 4.110492,-0.75595 0.472469,0.44885 2.315104,-0.42522 2.527716,-1.1103 0.212611,-0.68509 0.590587,-2.5041 1.441034,-2.52772 0.850445,-0.0236 3.638021,-0.0709 2.315104,2.83482 -1.322916,2.90569 -1.866257,4.74833 -1.488281,5.55153 0.377976,0.8032 0.637834,2.95294 2.007997,3.18917 1.370166,0.23624 3.614399,-0.42522 4.110493,0.14174 0.496093,0.56697 2.385975,5.64602 2.598586,6.70908 0.212611,1.06306 -0.04725,2.4096 -0.04725,2.4096 l 1.157552,2.85844 c 0,0 1.842632,2.78758 2.102493,2.88207 0.259857,0.0945 0.54334,0.0709 0.708705,0.56697 0.165364,0.49609 1.630021,2.14974 1.630021,2.52771 0,0.37798 5.126302,1.65365 5.126302,1.65365 0,0 2.291482,-1.93713 2.834822,-1.41741 0.543341,0.51972 2.574962,1.48828 3.354539,1.55915 0.779576,0.0709 2.338726,-0.37798 3.071055,0.16536 0.73233,0.54334 5.669647,0.87407 6.118497,1.48829 0.44884,0.61421 4.96093,0.7087 5.22079,2.48046 0.25986,1.77177 0.26178,3.76034 0.26178,3.76034 z"
       id="path864"
       inkscape:connector-curvature="0"
       sodipodi:nodetypes="cccccccccccccccccccccccccccccccccccccccccccccccccsccccccccccccccccccccccccccccccccccccccccsscccccsccsccccscscscscc" />
    <g
       aria-label="Brussels"
       transform="matrix(0.26458333,0,0,0.26458333,-38.194114,163.38074)"
       style="font-style:normal;font-variant:normal;font-weight:normal;font-stretch:normal;font-size:40px;line-height:125%;font-family:'Open Sans';-inkscape-font-specification:'Open Sans';letter-spacing:0px;word-spacing:0px;fill:#000000;fill-opacity:1;stroke:none;stroke-width:1px;stroke-linecap:butt;stroke-linejoin:miter;stroke-opacity:1"
       id="flowRoot869">
      <path
         d="m 312.4043,267.57087 h 8.0664 q 5.6836,0 8.22266,1.69922 2.53906,1.69922 2.53906,5.37109 0,2.53906 -1.42578,4.19922 -1.40625,1.64062 -4.12109,2.12891 v 0.19531 q 6.5039,1.11328 6.5039,6.83594 0,3.82812 -2.59765,5.97656 -2.57813,2.14844 -7.22657,2.14844 h -9.96093 z m 3.32031,12.22656 h 5.46875 q 3.51562,0 5.05859,-1.09375 1.54297,-1.11328 1.54297,-3.73047 0,-2.40234 -1.71875,-3.45703 -1.71875,-1.07422 -5.46875,-1.07422 h -4.88281 z m 0,2.8125 v 10.68359 h 5.95703 q 3.45703,0 5.19531,-1.32812 1.75782,-1.34766 1.75782,-4.19922 0,-2.65625 -1.79688,-3.90625 -1.77734,-1.25 -5.42969,-1.25 z"
         style=""
         id="path1645" />
      <path
         d="m 347.61914,274.32868 q 1.42578,0 2.55859,0.23438 l -0.44921,3.00781 q -1.32813,-0.29297 -2.34375,-0.29297 -2.59766,0 -4.45313,2.10937 -1.83594,2.10938 -1.83594,5.25391 v 11.48438 h -3.24218 v -21.40625 h 2.67578 l 0.37109,3.96484 h 0.15625 q 1.19141,-2.08984 2.87109,-3.22266 1.67969,-1.13281 3.69141,-1.13281 z"
         style=""
         id="path1647" />
      <path
         d="m 357.22852,274.71931 v 13.88671 q 0,2.61719 1.1914,3.90625 1.19141,1.28907 3.73047,1.28907 3.35938,0 4.90234,-1.83594 1.5625,-1.83594 1.5625,-5.99609 v -11.25 h 3.24219 v 21.40625 h -2.67578 l -0.46875,-2.8711 h -0.17578 q -0.99609,1.58203 -2.77344,2.42188 -1.75781,0.83984 -4.02344,0.83984 -3.90625,0 -5.85937,-1.85547 -1.93359,-1.85547 -1.93359,-5.9375 v -14.0039 z"
         style=""
         id="path1649" />
      <path
         d="m 392.52148,290.28571 q 0,2.98828 -2.22656,4.60938 -2.22656,1.62109 -6.25,1.62109 -4.25781,0 -6.64062,-1.34766 v -3.00781 q 1.54297,0.78125 3.30078,1.23047 1.77734,0.44922 3.41797,0.44922 2.53906,0 3.90625,-0.80078 1.36718,-0.82031 1.36718,-2.48047 0,-1.25 -1.09375,-2.12891 -1.07421,-0.89843 -4.21875,-2.10937 -2.98828,-1.11328 -4.25781,-1.9336 -1.25,-0.83984 -1.875,-1.89453 -0.60547,-1.05468 -0.60547,-2.51953 0,-2.61719 2.12891,-4.12109 2.12891,-1.52344 5.83984,-1.52344 3.45703,0 6.75782,1.40625 l -1.15235,2.63672 q -3.22265,-1.32813 -5.83984,-1.32813 -2.30469,0 -3.47656,0.72266 -1.17188,0.72266 -1.17188,1.99219 0,0.85937 0.42969,1.46484 0.44922,0.60547 1.42578,1.15235 0.97656,0.54687 3.75,1.58203 3.80859,1.38672 5.13672,2.79297 1.34765,1.40625 1.34765,3.53515 z"
         style=""
         id="path1651" />
      <path
         d="m 411.58398,290.28571 q 0,2.98828 -2.22656,4.60938 -2.22656,1.62109 -6.25,1.62109 -4.25781,0 -6.64062,-1.34766 v -3.00781 q 1.54297,0.78125 3.30078,1.23047 1.77734,0.44922 3.41797,0.44922 2.53906,0 3.90625,-0.80078 1.36718,-0.82031 1.36718,-2.48047 0,-1.25 -1.09375,-2.12891 -1.07421,-0.89843 -4.21875,-2.10937 -2.98828,-1.11328 -4.25781,-1.9336 -1.25,-0.83984 -1.875,-1.89453 -0.60547,-1.05468 -0.60547,-2.51953 0,-2.61719 2.12891,-4.12109 2.12891,-1.52344 5.83984,-1.52344 3.45703,0 6.75782,1.40625 l -1.15235,2.63672 q -3.22265,-1.32813 -5.83984,-1.32813 -2.30469,0 -3.47656,0.72266 -1.17188,0.72266 -1.17188,1.99219 0,0.85937 0.42969,1.46484 0.44922,0.60547 1.42578,1.15235 0.97656,0.54687 3.75,1.58203 3.80859,1.38672 5.13672,2.79297 1.34765,1.40625 1.34765,3.53515 z"
         style=""
         id="path1653" />
      <path
         d="m 425.88086,296.51618 q -4.74609,0 -7.5,-2.89062 -2.73438,-2.89063 -2.73438,-8.02735 0,-5.17578 2.53907,-8.22265 2.55859,-3.04688 6.85547,-3.04688 4.02343,0 6.36718,2.65625 2.34375,2.63672 2.34375,6.97266 v 2.05078 h -14.74609 q 0.0977,3.76953 1.89453,5.72265 1.81641,1.95313 5.09766,1.95313 3.45703,0 6.83593,-1.44531 v 2.89062 q -1.71875,0.74219 -3.26171,1.05469 -1.52344,0.33203 -3.69141,0.33203 z m -0.87891,-19.47266 q -2.57812,0 -4.12109,1.67969 -1.52344,1.67969 -1.79688,4.64844 h 11.19141 q 0,-3.06641 -1.36719,-4.6875 -1.36718,-1.64063 -3.90625,-1.64063 z"
         style=""
         id="path1655" />
      <path
         d="m 442.50195,296.12556 h -3.24218 v -30.39063 h 3.24218 z"
         style=""
         id="path1657" />
      <path
         d="m 463.22461,290.28571 q 0,2.98828 -2.22656,4.60938 -2.22657,1.62109 -6.25,1.62109 -4.25782,0 -6.64063,-1.34766 v -3.00781 q 1.54297,0.78125 3.30078,1.23047 1.77735,0.44922 3.41797,0.44922 2.53906,0 3.90625,-0.80078 1.36719,-0.82031 1.36719,-2.48047 0,-1.25 -1.09375,-2.12891 -1.07422,-0.89843 -4.21875,-2.10937 -2.98828,-1.11328 -4.25781,-1.9336 -1.25,-0.83984 -1.875,-1.89453 -0.60547,-1.05468 -0.60547,-2.51953 0,-2.61719 2.1289,-4.12109 2.12891,-1.52344 5.83985,-1.52344 3.45703,0 6.75781,1.40625 l -1.15234,2.63672 q -3.22266,-1.32813 -5.83985,-1.32813 -2.30468,0 -3.47656,0.72266 -1.17187,0.72266 -1.17187,1.99219 0,0.85937 0.42968,1.46484 0.44922,0.60547 1.42578,1.15235 0.97657,0.54687 3.75,1.58203 3.8086,1.38672 5.13672,2.79297 1.34766,1.40625 1.34766,3.53515 z"
         style=""
         id="path1659" />
    </g>
  </g>
</svg>
