<?xml version="1.0" encoding="UTF-8"?>
<!-- Created with Inkscape (http://www.inkscape.org/) -->
<svg width="35.97mm" height="24.646mm" version="1.1" viewBox="0 0 35.97 24.646" xmlns="http://www.w3.org/2000/svg" xmlns:cc="http://creativecommons.org/ns#" xmlns:dc="http://purl.org/dc/elements/1.1/" xmlns:rdf="http://www.w3.org/1999/02/22-rdf-syntax-ns#">
 <metadata>
  <rdf:RDF>
   <cc:Work rdf:about="">
    <dc:format>image/svg+xml</dc:format>
    <dc:type rdf:resource="http://purl.org/dc/dcmitype/StillImage"/>
    <dc:title/>
   </cc:Work>
  </rdf:RDF>
 </metadata>
 <g transform="translate(-85.581 -51.844)">
  <path d="m113.27 57.494a5.4428 5.6794 0 0 0-5.2192 4.0806 3.9046 4.6737 0 0 0-0.57859-0.0577 3.9046 4.6737 0 0 0-3.5914 2.8412 4.2596 4.0229 0 0 0-4.2178 4.0214 4.2596 4.0229 0 0 0 4.2596 4.0229 4.2596 4.0229 0 0 0 2.5729-0.82115 7.6317 3.9638 0 0 0 7.4252 3.0692 7.6317 3.9638 0 0 0 7.6317-3.9638 7.6317 3.9638 0 0 0-0.67295-1.6154 4.2004 3.5201 0 0 0 0.67295-1.9047 4.2004 3.5201 0 0 0-2.8796-3.3384 5.4428 5.6794 0 0 0 0.04-0.65491 5.4428 5.6794 0 0 0-5.4428-5.6794z" fill="#cbe896"/>
  <path d="m99.188 51.844a5.4428 5.6794 0 0 0-5.2191 4.0806 3.9046 4.6737 0 0 0-0.57859-0.0577 3.9046 4.6737 0 0 0-3.5914 2.8412 4.2596 4.0229 0 0 0-4.2178 4.0214 4.2596 4.0229 0 0 0 4.2596 4.0229 4.2596 4.0229 0 0 0 2.5729-0.82115 7.6317 3.9638 0 0 0 7.4252 3.0692 7.6317 3.9638 0 0 0 7.6317-3.9638 7.6317 3.9638 0 0 0-0.67295-1.6154 4.2004 3.5201 0 0 0 0.67295-1.9047 4.2004 3.5201 0 0 0-2.8796-3.3384 5.4428 5.6794 0 0 0 0.04-0.65491 5.4428 5.6794 0 0 0-5.4428-5.6794z" fill="#cbe896"/>
  <g transform="translate(83.221 -81.661)">
   <path d="m20.95 135.36a8.63 8.1132 0 0 0-8.4083 6.3195 7.3897 7.028 0 0 0-6.9396 7.013 7.3897 7.028 0 0 0 7.3897 7.028 7.3897 7.028 0 0 0 2.0919-0.29249 8.63 8.1132 0 0 0 6.4347 2.7213 8.63 8.1132 0 0 0 7.4001-3.9569 4.9093 3.5691 0 0 0 0.66146 0.0362 4.9093 3.5691 0 0 0 4.9093-3.5688 4.9093 3.5691 0 0 0-0.23564-1.079 7.6998 7.1865 0 0 0 2.251-5.0705 7.6998 7.1865 0 0 0-7.6998-7.1866 7.6998 7.1865 0 0 0-1.957 0.24029 8.63 8.1132 0 0 0-5.8978-2.204z" fill="#f4b886"/>
   <g fill="#fff" stroke-width=".26458px" aria-label="sdLix">
    <path d="m12.421 149.32c0-0.70908-0.32808-1.1959-1.0054-1.4817-0.87842-0.35984-0.92075-0.381-1.0901-0.46567-0.35983-0.17992-0.52917-0.42333-0.52917-0.762 0-0.46567 0.37042-0.83608 0.83608-0.83608 0.508 0 0.84667 0.29633 0.84667 0.84666h0.79375c0-0.93133-0.6985-1.5663-1.6298-1.5663-0.94192 0-1.6404 0.68792-1.6404 1.6298 0 0.41275 0.14817 0.77259 0.43392 1.0372 0.23283 0.22225 0.254 0.23283 1.0689 0.56092 0.83608 0.33866 1.1218 0.52916 1.1218 1.1112 0 0.58208-0.41275 1.0054-0.97367 1.0054-0.64558 0-1.0901-0.41275-1.0901-1.1218h-0.77258c0 1.1218 0.75142 1.8415 1.8627 1.8415 1.0372 0 1.7674-0.74083 1.7674-1.7992z"/>
    <path d="m19.297 150.99v-7.8211h-0.78317v2.9528c-0.5715-0.68791-1.3652-1.0583-2.2754-1.0583-1.7462 0-3.0798 1.3123-3.0798 3.0374 0 1.7145 1.3652 3.0268 3.1538 3.0268 0.96308 0 1.6192-0.34925 2.2013-1.1853v1.0478zm-0.75142-2.9104c0 1.27-1.016 2.3283-2.2542 2.3283-1.3229 0-2.3389-1.016-2.3389-2.3389 0-1.27 1.0054-2.286 2.2648-2.286 1.2806 0 2.3283 1.0266 2.3283 2.2966z"/>
    <path d="m24.795 150.99v-0.70909h-3.2385v-7.112h-0.78317v7.8211z"/>
    <path d="m26.318 150.99v-5.7891h-0.78317v5.7891zm0-6.4241v-1.3335h-0.78317v1.3335z"/>
    <path d="m31.972 150.99-2.0214-2.9528 2.0214-2.8363h-0.89958l-1.5558 2.2331-1.5663-2.2331h-0.889l2.0108 2.8363-2.0108 2.9528h0.889l1.5663-2.3178 1.5558 2.3178z"/>
   </g>
  </g>
 </g>
</svg>
